<svg xmlns="http://www.w3.org/2000/svg" xmlns:xlink="http://www.w3.org/1999/xlink" viewBox="0 0 146.33 106.55"><defs><style>.cls-1,.cls-11,.cls-12,.cls-21,.cls-23,.cls-36,.cls-41,.cls-43,.cls-50,.cls-51,.cls-53,.cls-58,.cls-62,.cls-66,.cls-75,.cls-76,.cls-77,.cls-78,.cls-79,.cls-80,.cls-81,.cls-82,.cls-83,.cls-86,.cls-87,.cls-88,.cls-89,.cls-90{fill:none;}.cls-2{fill:#7edbf2;}.cls-3{fill:#b3c4ff;}.cls-4{fill:#332b59;}.cls-14,.cls-5,.cls-55,.cls-7{fill:#1b3070;}.cls-14,.cls-5{stroke:#d1dcff;}.cls-11,.cls-12,.cls-14,.cls-19,.cls-22,.cls-41,.cls-43,.cls-5,.cls-50,.cls-51,.cls-53,.cls-62,.cls-75,.cls-76,.cls-77,.cls-78,.cls-79,.cls-80,.cls-81,.cls-82,.cls-83,.cls-87,.cls-88,.cls-89,.cls-90{stroke-miterlimit:10;}.cls-5{stroke-width:1.78px;}.cls-6{fill:#d1dcff;}.cls-8{fill:#5c6aab;}.cls-9{fill:#9eb4ff;}.cls-10{fill:#142759;}.cls-11,.cls-12,.cls-19{stroke:#46558f;}.cls-11,.cls-22{stroke-width:0.55px;}.cls-12,.cls-19{stroke-width:0.63px;}.cls-13,.cls-20{fill:#2f47ab;}.cls-14{stroke-width:2.2px;}.cls-15{fill:#fff;}.cls-16{fill:#1b2c66;}.cls-17{font-size:4.4px;}.cls-17,.cls-54,.cls-56{font-family:MyriadPro-Regular, Myriad Pro;}.cls-18{fill:#757099;}.cls-19{fill:#101d45;}.cls-20{opacity:0.45;}.cls-21{stroke:#313131;stroke-width:0.1px;}.cls-21,.cls-23,.cls-36,.cls-58,.cls-66,.cls-86{stroke-linecap:round;stroke-linejoin:round;}.cls-22{fill:#d6e0ff;}.cls-22,.cls-62{stroke:#1b3070;}.cls-23{stroke:#2f47ab;}.cls-23,.cls-36,.cls-58{stroke-width:0.41px;}.cls-24{fill:#6d7fc9;}.cls-25{fill:#0e214a;}.cls-26{fill:#769adb;}.cls-27{fill:#a4ecff;}.cls-28{fill:#243885;}.cls-29{fill:#5d74d9;}.cls-30{fill:#1849a5;}.cls-31{fill:#b8d4ff;}.cls-32{fill:#fcb59c;}.cls-33{fill:#1b3c54;}.cls-34{clip-path:url(#clip-path);}.cls-35{fill:#17344a;}.cls-36{stroke:#5e36bd;}.cls-37{fill:#7251bd;}.cls-38{fill:#5e36bd;}.cls-39{fill:#fc9f81;}.cls-40{fill:#e08f73;}.cls-41{stroke:#606060;stroke-width:0.03px;}.cls-42{fill:#62197d;}.cls-43{stroke:#401007;}.cls-43,.cls-50{stroke-width:0.07px;}.cls-44{fill:#761e96;}.cls-45{fill:#2e5170;}.cls-46{fill:#f04d96;}.cls-47{opacity:0.57;}.cls-48{clip-path:url(#clip-path-2);}.cls-49{fill:#bd457d;}.cls-50,.cls-51{stroke:#f2eaed;opacity:0.59;}.cls-51{stroke-width:0.06px;}.cls-52{fill:#a63c6d;}.cls-53{stroke:#61302e;stroke-width:0.1px;}.cls-54{font-size:1.58px;}.cls-55{font-size:1.22px;font-family:MyriadPro-Bold, Myriad Pro;font-weight:700;}.cls-56{font-size:0.7px;}.cls-57{fill:#1ac800;}.cls-58{stroke:#ddd;}.cls-59{fill:#fc9a47;}.cls-60{fill:#fdc973;}.cls-61{fill:#fe9b4e;}.cls-62{stroke-width:0.37px;}.cls-63{fill:#fcfbf9;}.cls-64{fill:#e08d74;}.cls-65{fill:#e66f00;}.cls-66{stroke:#e83c4c;stroke-dasharray:0.6;}.cls-66,.cls-75{stroke-width:0.11px;}.cls-67{fill:#ff7900;}.cls-68{fill:#fcb9a1;}.cls-69{fill:#e8aa94;}.cls-70{fill:#d17569;}.cls-71{fill:#d68670;}.cls-72{fill:#422180;}.cls-73{opacity:0.39;}.cls-74{clip-path:url(#clip-path-3);}.cls-75,.cls-76,.cls-77,.cls-78,.cls-79,.cls-80,.cls-81,.cls-82,.cls-83{stroke:#ecf6ff;}.cls-76{stroke-width:0.09px;}.cls-77{stroke-width:0.05px;}.cls-78{stroke-width:0.05px;}.cls-79{stroke-width:0.07px;}.cls-80{stroke-width:0.06px;}.cls-81{stroke-width:0.06px;}.cls-82{stroke-width:0.06px;}.cls-83{stroke-width:0.08px;}.cls-84{fill:#5231be;}.cls-85{fill:#abd7ff;}.cls-86{stroke:#454545;stroke-width:0.07px;}.cls-87,.cls-88,.cls-89,.cls-90{stroke:#fff;}.cls-87{stroke-width:0.3px;}.cls-88{stroke-width:0.12px;}.cls-89{stroke-width:0.25px;}.cls-90{stroke-width:0.22px;}</style><clipPath id="clip-path"><path class="cls-1" d="M53.55,66.53s2.71-2-1.82-1.79a7.05,7.05,0,0,0-2.15.27c-.78.3-.76,1.17-1.1,1.81a1.43,1.43,0,0,1-.76.69,3.86,3.86,0,0,1-1.27,0,3.68,3.68,0,0,0-1.31.26,1.67,1.67,0,0,0-1,1c-.24.79,0,1.92-1,2.28-.7.26-1.75-.58-2.23.16-.84,1.3.31,3.43.66,3.92,2.46,3.44,4.37.82,4.73.6s.13-.12.49-.48c1.09-1.09,2.08-2.28,3.06-3.47.7-.85,1.39-1.72,2.07-2.59l.09-.12Z"/></clipPath><clipPath id="clip-path-2"><path class="cls-1" d="M46.49,83.71a17,17,0,0,1,4.78.17,4.19,4.19,0,0,0,3.86-1.11s-.5-1.81-.5-1.82c-.05-.17-.22-.59-.27-.7a4.94,4.94,0,0,1-.56-1.43,9.75,9.75,0,0,1,0-2.16,1.77,1.77,0,0,1,.39-1.06c.25-.28.64-.43.88-.72a1.38,1.38,0,0,0,.27-.86,5.47,5.47,0,0,0-1.12-2.49c-.19-.31-.39-.61-.59-.91,0,0-.21-.37-.26-.37h-1l.82.18a1.73,1.73,0,0,1-.81.53,3.5,3.5,0,0,1-2.86-.65l-.13-.08-.92-.58c-.87.83-1.91,1.51-1.88,5.12C46.7,80.41,46.49,83.71,46.49,83.71Z"/></clipPath><clipPath id="clip-path-3"><path class="cls-1" d="M109.61,64.5a4,4,0,0,1,4.2,4.69s.16,5.9-.72,9.14H104.5s.89-10.92,2.48-13A2.23,2.23,0,0,0,109.61,64.5Z"/></clipPath></defs><g id="Layer_2" data-name="Layer 2"><g id="Layer_1-2" data-name="Layer 1"><path class="cls-2" d="M122.47,24.38c4.63,4,9,9,10.17,14.35,1.82,8.54-2.55,18.14-7.28,25C108.94,87.38,81,103.4,52.47,106.2a61.09,61.09,0,0,1-11.71.13c-7.87-.71-15.86-3.45-21.85-8.74-6.65-5.88-8.37-15-7.84-23.59.8-12.74,4.16-26.07,8.62-38,3.12-8.36,6.92-16.34,13.63-22.48A52,52,0,0,1,62.82.27,49.12,49.12,0,0,1,71.48.13c8,.59,15.79,3.5,23,6.86a158.59,158.59,0,0,1,22.16,12.9A71,71,0,0,1,122.47,24.38Z"/><path class="cls-3" d="M117.94,20.85c.23-.74.47-1.48.74-2.2a13,13,0,0,1,4-5.91,6.55,6.55,0,0,1,4.36-1.47,6.7,6.7,0,0,1,4.49,2.58c4,4.87,4.58,12.12,5,18.19a94.83,94.83,0,0,1-.91,19.7c-.24,1.69-.52,3.38-.83,5.07-.57,3.08-1.28,6.55-3.1,9.16-3,4.36-6.57-.38-8.23-3.36a56.86,56.86,0,0,1-7.4-29.28A48.66,48.66,0,0,1,117.94,20.85Z"/><path class="cls-4" d="M127.11,76.61c.68-10.5.68-21.07.45-31.62q-.18-7.92-.55-15.83c-.23-5.27-.55-10.54-.82-15.82.39,5.27.83,10.53,1.18,15.8s.66,10.55.9,15.83c.47,10.55.71,21.13.26,31.72Z"/><polygon class="cls-4" points="126.74 24.31 132.01 18.84 127 24.55 126.74 24.31"/><polygon class="cls-4" points="126.83 25.84 120.05 19.84 127.06 25.57 126.83 25.84"/><path class="cls-4" d="M127.23,32.15c.9-.82,1.79-1.65,2.66-2.51a21.06,21.06,0,0,0,2.44-2.73A21,21,0,0,1,130,29.76c-.83.9-1.68,1.78-2.54,2.65Z"/><path class="cls-4" d="M127.34,33.68q-2.06-1.34-4-2.8c-.65-.49-1.3-1-1.91-1.53a6.85,6.85,0,0,1-1.61-1.83,6.62,6.62,0,0,0,1.66,1.76c.63.52,1.3,1,2,1.46,1.34.93,2.72,1.8,4.11,2.64Z"/><path class="cls-4" d="M127.79,40.42q1.71-1.65,3.32-3.4c.53-.58,1.06-1.18,1.56-1.79A12.57,12.57,0,0,0,134,33.29a12.37,12.37,0,0,1-1.3,2c-.48.64-1,1.25-1.5,1.86-1,1.21-2.1,2.38-3.2,3.53Z"/><path class="cls-4" d="M127.93,42.22A9.64,9.64,0,0,1,125.46,41a21.72,21.72,0,0,1-2.19-1.62,36.45,36.45,0,0,1-3.86-3.8,36.27,36.27,0,0,0,4,3.66,19.75,19.75,0,0,0,2.21,1.53,9.26,9.26,0,0,0,2.4,1.1Z"/><path class="cls-4" d="M128,48c1.25-1,2.47-2,3.67-3.1.6-.54,1.18-1.09,1.75-1.65A12.36,12.36,0,0,0,135,41.41a12.89,12.89,0,0,1-1.5,1.88c-.55.59-1.12,1.16-1.7,1.72q-1.74,1.66-3.57,3.25Z"/><path class="cls-4" d="M128.06,50.78q-2.34-1.29-4.58-2.71c-.75-.48-1.49-1-2.2-1.51a8.55,8.55,0,0,1-1.92-1.83,8.54,8.54,0,0,0,2,1.76c.72.51,1.47,1,2.23,1.43,1.52.9,3.08,1.75,4.66,2.54Z"/><path class="cls-4" d="M128.12,55.79a19.06,19.06,0,0,0,2.75-1.11,6.74,6.74,0,0,0,2.36-1.77A6.87,6.87,0,0,1,131,54.84a19.33,19.33,0,0,1-2.72,1.29Z"/><path class="cls-4" d="M128.1,58.28A31.66,31.66,0,0,1,125,56.65a15.44,15.44,0,0,1-1.44-1,3.48,3.48,0,0,1-1.11-1.33,3.51,3.51,0,0,0,1.16,1.26,13.37,13.37,0,0,0,1.48.91A28.94,28.94,0,0,0,128.23,58Z"/><rect class="cls-5" x="11.57" y="21.14" width="70.65" height="46.15" rx="1.82"/><rect class="cls-6" x="12.11" y="62.93" width="69.8" height="4.36"/><circle class="cls-7" cx="47.01" cy="65.58" r="1.71"/><path class="cls-8" d="M45.8,66.79a1.71,1.71,0,1,0,2.42-2.41Z"/><rect class="cls-8" x="37.44" y="67.98" width="20.54" height="3.39"/><rect class="cls-8" x="30.51" y="71.37" width="34.4" height="2.5" rx="1.25"/><rect class="cls-3" x="28.98" y="27.39" width="36.93" height="23.52" rx="2.6"/><rect class="cls-7" x="28.98" y="29.99" width="36.93" height="4.89"/><rect class="cls-9" x="30.89" y="36.71" width="18.02" height="3.66"/><rect class="cls-10" x="30.89" y="42.17" width="18.56" height="0.73"/><rect class="cls-10" x="30.89" y="44.23" width="24.83" height="0.73"/><rect class="cls-7" x="81.39" y="43.15" width="44.35" height="31.45" transform="translate(207.13 117.75) rotate(180)"/><rect class="cls-11" x="117.35" y="46.79" width="5.06" height="6.54" transform="translate(239.76 100.11) rotate(180)"/><line class="cls-11" x1="119.88" y1="53.33" x2="119.88" y2="46.79"/><line class="cls-11" x1="122.41" y1="50.06" x2="117.35" y2="50.06"/><rect class="cls-11" x="84.91" y="46.79" width="5.06" height="6.54" transform="translate(174.89 100.11) rotate(180)"/><line class="cls-11" x1="87.44" y1="53.33" x2="87.44" y2="46.79"/><line class="cls-11" x1="89.97" y1="50.06" x2="84.91" y2="50.06"/><path class="cls-12" d="M117.35,57.93h5.06a0,0,0,0,1,0,0V64a2.53,2.53,0,0,1-2.53,2.53h0A2.53,2.53,0,0,1,117.35,64V57.93A0,0,0,0,1,117.35,57.93Z" transform="translate(239.76 124.47) rotate(180)"/><line class="cls-12" x1="119.88" y1="66.54" x2="119.88" y2="57.93"/><line class="cls-12" x1="122.41" y1="61.14" x2="117.35" y2="61.14"/><line class="cls-12" x1="122.41" y1="63.26" x2="117.35" y2="63.26"/><path class="cls-12" d="M84.91,57.93H90a0,0,0,0,1,0,0V64a2.53,2.53,0,0,1-2.53,2.53h0A2.53,2.53,0,0,1,84.91,64V57.93a0,0,0,0,1,0,0Z" transform="translate(174.89 124.47) rotate(180)"/><line class="cls-12" x1="87.44" y1="66.54" x2="87.44" y2="57.93"/><line class="cls-12" x1="89.97" y1="61.14" x2="84.91" y2="61.14"/><line class="cls-12" x1="89.97" y1="63.26" x2="84.91" y2="63.26"/><circle class="cls-11" cx="103.46" cy="49.83" r="3.04"/><line class="cls-11" x1="106.5" y1="49.83" x2="100.41" y2="49.83"/><line class="cls-11" x1="103.46" y1="46.79" x2="103.46" y2="52.87"/><rect class="cls-13" x="75.05" y="38.26" width="56.82" height="4.89" transform="translate(206.91 81.41) rotate(180)"/><path class="cls-14" d="M103.7,21.71l28.61,15.11a.52.52,0,0,1-.25,1H74.85a.53.53,0,0,1-.25-1l28.61-15.11A.53.53,0,0,1,103.7,21.71Z"/><circle class="cls-15" cx="103.46" cy="30.64" r="3.28"/><rect class="cls-16" x="75.05" y="38.95" width="56.82" height="0.71" transform="translate(206.91 78.61) rotate(180)"/><rect class="cls-16" x="83.85" y="43.17" width="39.21" height="1.08" transform="translate(206.91 87.42) rotate(180)"/><text class="cls-17" transform="translate(102.33 31.85)">$</text><rect class="cls-9" x="123.06" y="43.15" width="3.88" height="2.75" transform="translate(250 89.05) rotate(180)"/><rect class="cls-3" x="123.68" y="45.9" width="2.78" height="28.7" transform="translate(250.14 120.5) rotate(180)"/><rect class="cls-9" x="111.67" y="43.15" width="3.88" height="2.75" transform="translate(227.22 89.05) rotate(180)"/><rect class="cls-3" x="112.29" y="45.9" width="2.78" height="28.7" transform="translate(227.36 120.5) rotate(180)"/><rect class="cls-9" x="91.36" y="43.15" width="3.88" height="2.75" transform="translate(186.6 89.05) rotate(180)"/><rect class="cls-3" x="91.98" y="45.9" width="2.78" height="28.7" transform="translate(186.74 120.5) rotate(180)"/><rect class="cls-9" x="79.98" y="43.15" width="3.88" height="2.75" transform="translate(163.83 89.05) rotate(180)"/><rect class="cls-3" x="80.59" y="45.9" width="2.78" height="28.7" transform="translate(163.97 120.5) rotate(180)"/><polygon class="cls-18" points="125.74 45.9 123.68 47.35 123.68 45.9 125.74 45.9"/><polygon class="cls-18" points="125.12 43.15 123.06 44.6 123.06 43.15 125.12 43.15"/><polygon class="cls-18" points="114.35 45.9 112.29 47.35 112.29 45.9 114.35 45.9"/><polygon class="cls-18" points="113.74 43.15 111.67 44.6 111.67 43.15 113.74 43.15"/><polygon class="cls-18" points="94.04 45.9 91.98 47.35 91.98 45.9 94.04 45.9"/><polygon class="cls-18" points="93.42 43.15 91.36 44.6 91.36 43.15 93.42 43.15"/><polygon class="cls-18" points="82.65 45.9 80.59 47.35 80.59 45.9 82.65 45.9"/><polygon class="cls-18" points="82.04 43.15 79.98 44.6 79.98 43.15 82.04 43.15"/><path class="cls-19" d="M99.93,57.93h7.28a0,0,0,0,1,0,0V71a3.64,3.64,0,0,1-3.64,3.64h0A3.64,3.64,0,0,1,99.93,71v-13A0,0,0,0,1,99.93,57.93Z" transform="translate(207.13 132.53) rotate(-180)"/><rect class="cls-9" x="79.21" y="74.6" width="48.5" height="2.26"/><rect class="cls-7" x="54.35" y="24.12" width="32.07" height="58.67" rx="3.02"/><path class="cls-13" d="M63.76,37.89l6.35-4.15a.47.47,0,0,1,.53,0l6.25,4.15a.48.48,0,0,1-.27.88H64A.48.48,0,0,1,63.76,37.89Z"/><path class="cls-13" d="M66.49,48.08H64.7a.19.19,0,0,1-.19-.19L64.72,40a.19.19,0,0,1,.19-.18h1.37a.19.19,0,0,1,.19.18l.21,7.93A.19.19,0,0,1,66.49,48.08Z"/><path class="cls-13" d="M69.62,48.08h-1.8a.2.2,0,0,1-.19-.19L67.85,40a.18.18,0,0,1,.18-.18H69.4a.19.19,0,0,1,.19.18l.21,7.93A.19.19,0,0,1,69.62,48.08Z"/><path class="cls-13" d="M72.87,48.08h-1.8a.19.19,0,0,1-.18-.19L71.1,40a.18.18,0,0,1,.18-.18h1.38a.18.18,0,0,1,.18.18l.21,7.93A.18.18,0,0,1,72.87,48.08Z"/><path class="cls-13" d="M76,48.08h-1.8a.19.19,0,0,1-.18-.19L74.24,40a.19.19,0,0,1,.19-.18H75.8A.18.18,0,0,1,76,40l.22,7.93A.2.2,0,0,1,76,48.08Z"/><path class="cls-13" d="M64.3,48.93H76.47a.18.18,0,0,1,.18.18V50a0,0,0,0,1,0,0H64.12a0,0,0,0,1,0,0v-.88a.18.18,0,0,1,.18-.18Z"/><path class="cls-13" d="M62.27,50H78.5a.18.18,0,0,1,.18.18v1a0,0,0,0,1,0,0H62.09a0,0,0,0,1,0,0v-1A.18.18,0,0,1,62.27,50Z"/><rect class="cls-13" x="62.12" y="56.3" width="16.52" height="3.28" rx="1.64"/><circle class="cls-9" cx="64.82" cy="57.93" r="0.64"/><circle class="cls-9" cx="68.53" cy="57.93" r="0.64"/><circle class="cls-9" cx="72.24" cy="57.93" r="0.64"/><circle class="cls-9" cx="75.95" cy="57.93" r="0.64"/><polygon class="cls-20" points="76.59 24.12 54.4 46.31 54.4 54.18 84.43 24.15 76.59 24.12"/><polygon class="cls-20" points="87.23 55.63 87.23 63.5 85.6 65.13 68.75 81.99 67.94 82.8 60.1 82.77 60.88 81.99 85.6 57.26 87.23 55.63"/><path class="cls-6" d="M83.52,23.31H57.25A3.71,3.71,0,0,0,53.54,27V79.9a3.71,3.71,0,0,0,3.71,3.71H83.52a3.71,3.71,0,0,0,3.71-3.71V27A3.71,3.71,0,0,0,83.52,23.31ZM86.15,79.9a3.15,3.15,0,0,1-2.63,2.64H57.25a3.15,3.15,0,0,1-2.63-2.64V27a3.14,3.14,0,0,1,2.63-2.63H83.52A3.14,3.14,0,0,1,86.15,27Z"/><path class="cls-6" d="M76.25,27H64.46c-1.57,0-2.29-1.27-2.29-2.84H78.54C78.54,25.69,77.82,27,76.25,27Z"/><path class="cls-6" d="M54.35,80.38H86.42a0,0,0,0,1,0,0v.34a2.08,2.08,0,0,1-2.08,2.08H56.43a2.08,2.08,0,0,1-2.08-2.08v-.34a0,0,0,0,1,0,0Z"/><circle class="cls-3" cx="78.01" cy="56.65" r="1.02"/><polyline class="cls-21" points="77.51 56.69 77.85 57.09 78.51 56.22"/><rect class="cls-22" x="122.41" y="27.63" width="12.39" height="16.69" rx="1.07"/><rect class="cls-13" x="123.86" y="31.8" width="2.16" height="2.16" rx="0.64"/><rect class="cls-13" x="123.86" y="35.33" width="2.16" height="2.16" rx="0.64"/><rect class="cls-13" x="123.86" y="38.86" width="2.16" height="2.16" rx="0.64"/><line class="cls-23" x1="127.4" y1="32.87" x2="133.35" y2="32.87"/><line class="cls-23" x1="127.4" y1="36.4" x2="133.35" y2="36.4"/><line class="cls-23" x1="127.4" y1="39.94" x2="133.35" y2="39.94"/><path class="cls-13" d="M128.61,27.63h-3.39l.52,1.24a.93.93,0,0,0,.85.56h4a.91.91,0,0,0,.84-.56l.53-1.24Z"/><path class="cls-13" d="M126.37,27.63V26.7c0-.17.2-.32.45-.32h3.57c.25,0,.46.15.46.32v.93Z"/><rect class="cls-24" x="14.64" y="55.86" width="20.77" height="4.74" transform="translate(50.05 116.46) rotate(180)"/><rect class="cls-15" x="16.5" y="57.37" width="17.04" height="1.71" transform="translate(50.05 116.46) rotate(180)"/><path class="cls-13" d="M19.44,76.24v0h0a3.21,3.21,0,0,1-2.05,2.45H4.06a3,3,0,0,0,2.1-2.85V69.44A2.7,2.7,0,0,1,9,66.65H22.09a2.63,2.63,0,0,0-.8.13l-.29.11A2.73,2.73,0,0,0,19.78,68l-.31.8a2.62,2.62,0,0,0-.06.57v1.3l0,1.1v.78l0,1.1V75.5Z"/><path class="cls-25" d="M19.41,69.33h0v1.3l0,1.1v.78l0,1.1v1.32h7.7a2.68,2.68,0,0,1-.81-.21l-.15-.07L26,74.52l-.14-.1h0a2.89,2.89,0,0,1-.5-.49l0-.07a1.5,1.5,0,0,1-.15-.23v0l-.06-.11,0-.07L25,73.33a2.47,2.47,0,0,1-.1-.29,1.42,1.42,0,0,1-.05-.22.58.58,0,0,1,0-.14c0-.05,0-.1,0-.15h0v-.1a.66.66,0,0,1,0-.14v-3h0V69.2h0s0-.1,0-.14,0-.27-.07-.4l0-.1h0l0-.08s0,0,0,0l0-.09-.05-.09,0-.08a.25.25,0,0,0,0-.07A.83.83,0,0,0,24.4,68a4,4,0,0,0-.23-.34h0l0,0,0,0,0,0a.08.08,0,0,0,0,0s0,0-.06-.06l-.08-.08-.08-.07h0l-.07-.06-.08-.06-.12-.08L23.38,67h0l-.09,0-.09,0-.05,0-.05,0,0,0h0l0,0-.17,0-.06,0-.11,0-.1,0h-.76l-.17,0h0l-.13,0h-.09l-.06,0-.06,0h0l-.15.06-.07,0-.1,0-.09,0-.18.11a.88.88,0,0,0-.17.12l-.14.11a.94.94,0,0,0-.1.1l0,0c-.1.11-.19.22-.28.34a.56.56,0,0,1-.05.08l-.06.09a2.63,2.63,0,0,0-.3.78l0,.08s0,0,0,.08a.77.77,0,0,1,0,.15C19.42,69.15,19.41,69.24,19.41,69.33Z"/><path class="cls-26" d="M19.46,68.83l0-.08v0S19.46,68.81,19.46,68.83Z"/><path class="cls-26" d="M24,67.42s.05,0,.06.06a.08.08,0,0,1,0,0Z"/><path class="cls-26" d="M23.64,67.15l.15.12-.07-.06Z"/><path class="cls-26" d="M23.28,66.93l.09,0h0Z"/><path class="cls-26" d="M23,66.8l0,0h0Z"/><path class="cls-13" d="M16.76,60.55v6.1h5.33l.29,0,.14,0,.14,0h0l.13,0,.1,0,.11,0,.08,0,.1,0,.18.09h0l.14.08h0l0,0,.16.12.16.13h0a1.59,1.59,0,0,1,.13.13l.1.1,0,0a0,0,0,0,1,0,0s.08.1.12.15.06.09.09.15l0,0h0l.1.18.09.19c0,.07.05.14.07.21a1.29,1.29,0,0,1,.05.21h0a2.33,2.33,0,0,1,.06.53v2.81h0a1.09,1.09,0,0,0,0,.18.66.66,0,0,0,0,.14v.1h0s0,.1,0,.15a.58.58,0,0,0,0,.14,1.42,1.42,0,0,0,.05.22,2.47,2.47,0,0,0,.1.29l.05.09,0,.07.06.11v0a1.5,1.5,0,0,0,.15.23l0,.07a2.89,2.89,0,0,0,.5.49h0l.14.1.23.13.15.07a2.68,2.68,0,0,0,.81.21h.25a2.65,2.65,0,0,0,2.65-2.65v-.18h0V60.3h0c0-.08,0-.16,0-.25a2.5,2.5,0,0,1,.25-.71,2.62,2.62,0,0,1,2.35-1.44H19.41a2.65,2.65,0,0,0-2.64,2.4A2,2,0,0,0,16.76,60.55Z"/><rect class="cls-24" x="18.17" y="58.75" width="10.5" height="0.52" rx="0.24" transform="translate(46.83 118.02) rotate(-180)"/><rect class="cls-24" x="18.17" y="62.59" width="10.5" height="0.52" rx="0.24" transform="translate(46.83 125.7) rotate(180)"/><rect class="cls-24" x="18.17" y="64.83" width="10.5" height="0.52" rx="0.24" transform="translate(46.83 130.17) rotate(-180)"/><path class="cls-24" d="M23.52,67.07h0l0,0,.16.12.16.13h0a1.59,1.59,0,0,1,.13.13l.1.1h4.29a.26.26,0,1,0,0-.51Z"/><path class="cls-24" d="M24.77,69.3v.52h3.64a.26.26,0,0,0,0-.52Z"/><path class="cls-24" d="M24.77,71.54v.52h3.64a.26.26,0,0,0,0-.52Z"/><rect class="cls-24" x="7.21" y="68.83" width="10.5" height="0.52" rx="0.24" transform="translate(24.92 138.18) rotate(180)"/><rect class="cls-24" x="7.21" y="71.07" width="10.5" height="0.52" rx="0.24" transform="translate(24.92 142.65) rotate(180)"/><rect class="cls-24" x="7.21" y="73.3" width="10.5" height="0.52" rx="0.24" transform="translate(24.92 147.13) rotate(-180)"/><rect class="cls-24" x="7.21" y="75.54" width="10.5" height="0.52" rx="0.24" transform="translate(24.92 151.6) rotate(-180)"/><rect class="cls-24" x="20.02" y="60.54" width="8.64" height="0.52" rx="0.24" transform="translate(48.69 121.6) rotate(-180)"/><path class="cls-27" d="M19.44,76.24s0,0,0,0h0l0-.77"/><rect class="cls-28" x="118.24" y="71.84" width="12.43" height="6.03" transform="translate(-12.72 27.15) rotate(-11.85)"/><path class="cls-29" d="M129.26,76.16,120.57,78a.91.91,0,0,0-1.09-.71l-.55-2.63a.91.91,0,0,0,.71-1.09l8.69-1.82a.93.93,0,0,0,1.09.71l.55,2.63A.91.91,0,0,0,129.26,76.16Z"/><rect class="cls-13" x="118.26" y="72.03" width="12.43" height="6.03" transform="translate(-8.4 16.14) rotate(-7.18)"/><path class="cls-29" d="M129.16,76.73l-8.8,1.11a.94.94,0,0,0-1-.8L119,74.38a.93.93,0,0,0,.8-1l8.8-1.11a.94.94,0,0,0,1,.8L130,75.7A.92.92,0,0,0,129.16,76.73Z"/><circle class="cls-15" cx="124.47" cy="75.04" r="1.01"/><path d="M124.81,74.56l-.29,0a.25.25,0,0,1,.11.15l.2,0v.1l-.2,0c0,.17-.13.28-.35.32.15.11.33.25.49.39l-.2,0c-.15-.12-.3-.25-.48-.38l0-.13h.11c.18,0,.27-.1.27-.2l-.4.05v-.09l.39,0c0-.07-.13-.11-.28-.09l-.12,0,0-.13.77-.1Z"/><path class="cls-30" d="M57.68,76.16l-.27-.39s0-.13.06-.18l2.87-2c.07,0,.17-.07.2,0l.43.29c.05.06,0,.15-.06.21l-3,2.13A.15.15,0,0,1,57.68,76.16Z"/><path class="cls-7" d="M57.66,76.14l-.28-.41a.13.13,0,0,1,.06-.17l2.89-2a.15.15,0,0,1,.18,0l.44.32a.12.12,0,0,1-.06.16l-3,2.15A.14.14,0,0,1,57.66,76.14Z"/><polygon class="cls-15" points="57.85 76.1 57.46 75.58 60.3 73.58 60.85 73.99 57.85 76.1"/><path d="M60.72,73.82l-.24-.17s0,0,0,0h0a0,0,0,0,1,0,0l.24.17s0,0,0,0h-.05Z"/><circle cx="60.79" cy="73.85" r="0.03" transform="translate(-3.4 2.93) rotate(-2.69)"/><polygon class="cls-31" points="60.45 74.18 60.09 73.88 60.16 73.83 60.51 74.14 60.45 74.18"/><polygon class="cls-31" points="60.32 74.27 59.97 73.96 60.03 73.92 60.38 74.22 60.32 74.27"/><polygon class="cls-31" points="60.19 74.36 59.84 74.05 59.9 74.01 60.26 74.31 60.19 74.36"/><polygon class="cls-31" points="60.06 74.44 59.71 74.14 59.78 74.09 60.13 74.4 60.06 74.44"/><polygon class="cls-31" points="59.94 74.53 59.59 74.23 59.65 74.18 60 74.49 59.94 74.53"/><polygon class="cls-31" points="59.51 74.83 59.15 74.52 59.52 74.27 59.87 74.58 59.51 74.83"/><polygon class="cls-31" points="59.32 74.95 58.97 74.65 59.03 74.6 59.38 74.91 59.32 74.95"/><polygon class="cls-31" points="59.19 75.04 58.84 74.73 58.9 74.69 59.25 75 59.19 75.04"/><polygon class="cls-31" points="59.06 75.13 58.71 74.82 58.77 74.78 59.13 75.08 59.06 75.13"/><polygon class="cls-31" points="58.93 75.21 58.58 74.91 58.65 74.86 59 75.17 58.93 75.21"/><polygon class="cls-31" points="58.81 75.3 58.45 74.99 58.52 74.95 58.87 75.26 58.81 75.3"/><polygon class="cls-31" points="58.37 75.6 58.02 75.29 58.39 75.04 58.74 75.34 58.37 75.6"/><polygon class="cls-32" points="45.51 99.91 45.77 99.46 44.36 99.43 44.2 99.91 45.51 99.91"/><polygon class="cls-32" points="54.91 99.91 54.76 99.32 56.17 99.32 56.4 99.91 54.91 99.91"/><path class="cls-33" d="M53.55,66.53s2.71-2-1.82-1.79a7.05,7.05,0,0,0-2.15.27c-.78.3-.76,1.17-1.1,1.81a1.43,1.43,0,0,1-.76.69,3.86,3.86,0,0,1-1.27,0,3.68,3.68,0,0,0-1.31.26,1.67,1.67,0,0,0-1,1c-.24.79,0,1.92-1,2.28-.7.26-1.75-.58-2.23.16-.84,1.3.31,3.43.66,3.92,2.46,3.44,4.37.82,4.73.6s.13-.12.49-.48c1.09-1.09,2.08-2.28,3.06-3.47.7-.85,1.39-1.72,2.07-2.59l.09-.12Z"/><g class="cls-34"><path class="cls-35" d="M53.9,66a2.83,2.83,0,0,1-.49.36,2.42,2.42,0,0,1-1.23.49c-.34,0-.68,0-1,0h-.72a2.5,2.5,0,0,0-.67.07,1.79,1.79,0,0,0-.6.34,7.12,7.12,0,0,0-.73.82,2.53,2.53,0,0,1-1.07.81,5.54,5.54,0,0,0-1.31.47c-.53.35-.77,1-1.2,1.47a2.32,2.32,0,0,1-1.34.71A4.54,4.54,0,0,1,40.91,71s-3.78,1.94-.87,4.59,9.43,2.57,12.14-.86S53.9,66,53.9,66Z"/></g><path class="cls-32" d="M49.4,70.24s1.62,1.23,3,.79v-.77h0v-1.6L51,67.8l-.51,2.37-1,.07Z"/><rect class="cls-36" x="53.35" y="85.2" width="3.27" height="1.11"/><rect class="cls-37" x="51.43" y="86.31" width="7.12" height="4.93"/><rect class="cls-38" x="51.43" y="86.31" width="7.12" height="2.46"/><rect class="cls-39" x="54.14" y="88.5" width="1.65" height="0.53"/><path class="cls-40" d="M55.1,80.18l-.23,2.69,0,1.15a6.47,6.47,0,0,1,1.09,1.55c.17.55-.12.64-.4.05s-.52-.45-.51-.11,0,1.86,0,1.86,0,.2-.17.19a2.17,2.17,0,0,0-.56.21c-.2.08-.33-.17-.5-.15s-.3-.54-.42-.57S53,87,53.16,85.84a9.3,9.3,0,0,1,.41-2l-.81-3.75s-.75-6.3-.29-7.92,2.47-1.55,2.59,2.55.06,5.09.06,5.09Z"/><path class="cls-41" d="M53.46,87.16a7.06,7.06,0,0,1,.06-.92"/><path class="cls-41" d="M54,87.68a8.79,8.79,0,0,1-.08-1.36"/><path class="cls-41" d="M54.35,87.75a11.62,11.62,0,0,1,0-1.37"/><path class="cls-41" d="M54.68,87.6a7.82,7.82,0,0,1,0-1.09"/><path class="cls-32" d="M50.63,67.56s.71,1.86,1.94,1.66a1.36,1.36,0,0,0,1.06-.8,3.22,3.22,0,0,0,.14-.44.88.88,0,0,0,0-.16s0-.06,0-.09.28,0,.28,0a4,4,0,0,0-.28-.43,1.21,1.21,0,0,0-.11-.57,1.09,1.09,0,0,0-.44-.63,1.38,1.38,0,0,0-.66-.24.8.8,0,0,0-.79.35,1.67,1.67,0,0,0-.25.89.36.36,0,0,0-.33-.3C50.23,66.68,50.63,67.56,50.63,67.56Z"/><polygon class="cls-42" points="54.46 80.71 56.94 99.7 54.22 99.7 48.64 80.86 54.46 80.71"/><line class="cls-43" x1="49.71" y1="80.94" x2="54.4" y2="99.61"/><line class="cls-43" x1="50.89" y1="81.04" x2="55.02" y2="99.61"/><line class="cls-43" x1="51.68" y1="81.04" x2="55.69" y2="99.61"/><line class="cls-43" x1="52.43" y1="81.04" x2="56.23" y2="99.61"/><line class="cls-43" x1="53.4" y1="81.04" x2="56.75" y2="99.61"/><polygon class="cls-44" points="47.01 99.7 52.67 80.86 47.52 80.55 44.2 99.7 47.01 99.7"/><line class="cls-43" x1="51.68" y1="81.04" x2="46.71" y2="99.71"/><line class="cls-43" x1="50.42" y1="80.94" x2="46.09" y2="99.71"/><line class="cls-43" x1="49.71" y1="80.94" x2="45.42" y2="99.71"/><line class="cls-43" x1="49.05" y1="80.94" x2="44.88" y2="99.71"/><line class="cls-43" x1="48.22" y1="80.94" x2="44.36" y2="99.71"/><path class="cls-45" d="M56.64,99.91a4.38,4.38,0,0,0,2.48,1.3c1.75.37,1.34,1.18,1.34,1.18h-5l-.81-2.48Z"/><path class="cls-45" d="M45.7,99.91a4.38,4.38,0,0,0,2.48,1.3c1.75.37,1.34,1.18,1.34,1.18h-6l.56-2.48Z"/><path class="cls-40" d="M52.43,70.26V71a1.73,1.73,0,0,0,.81-.53Z"/><path class="cls-46" d="M46.49,83.71a17,17,0,0,1,4.78.17,4.19,4.19,0,0,0,3.86-1.11s-.5-1.81-.5-1.82c-.05-.17-.22-.59-.27-.7a4.94,4.94,0,0,1-.56-1.43,9.75,9.75,0,0,1,0-2.16,1.77,1.77,0,0,1,.39-1.06c.25-.28.64-.43.88-.72a1.38,1.38,0,0,0,.27-.86,5.47,5.47,0,0,0-1.12-2.49c-.19-.31-.39-.61-.59-.91,0,0-.21-.37-.26-.37h-1l.82.18a1.73,1.73,0,0,1-.81.53,3.5,3.5,0,0,1-2.86-.65l-.13-.08-.92-.58c-.87.83-1.91,1.51-1.88,5.12C46.7,80.41,46.49,83.71,46.49,83.71Z"/><path class="cls-33" d="M53.55,66.53s2.71-2-1.82-1.79c-2.51.12-2.61.35-3,1.51C48.7,66.25,51.52,67.91,53.55,66.53Z"/><g class="cls-47"><g class="cls-48"><path class="cls-49" d="M53.38,70.25S55,72.63,53.07,76s-4.09,5.74-1.8,7.88a19.16,19.16,0,0,0-4.78-.17s-1.35-12.28,2-14C48.53,69.66,49.29,72.65,53.38,70.25Z"/><polygon class="cls-50" points="47.26 79.46 46.88 80.28 46.02 80.22 46.64 81.09 46.49 82.06 47.26 81.77 48.03 82.44 47.88 81.39 48.51 80.83 47.65 80.47 47.26 79.46"/><polygon class="cls-51" points="54.43 79.69 53.95 80.93 52.87 81.13 53.65 82.09 53.46 83.46 54.43 82.81 55.39 83.46 55.2 82.09 55.98 81.13 54.91 80.93 54.43 79.69"/><polygon class="cls-50" points="53.52 69.9 53.18 70.6 52.41 70.72 52.96 71.26 52.83 72.03 53.52 71.66 54.21 72.03 54.08 71.26 54.64 70.72 53.87 70.6 53.52 69.9"/><polygon class="cls-50" points="50.7 81.33 50.27 82.2 49.31 82.34 50.01 83.02 49.84 83.97 50.7 83.52 51.56 83.97 51.39 83.02 52.09 82.34 51.13 82.2 50.7 81.33"/><polygon class="cls-50" points="51.08 71.6 50.94 71.87 50.62 71.88 50.85 72.13 50.79 72.43 51.08 72.32 51.37 72.5 51.32 72.18 51.55 71.98 51.23 71.9 51.08 71.6"/><polygon class="cls-50" points="47.23 76.39 47.1 76.69 46.79 76.7 47.01 76.99 46.96 77.35 47.23 77.22 47.51 77.43 47.46 77.06 47.68 76.84 47.37 76.74 47.23 76.39"/></g></g><path class="cls-52" d="M51.18,80.64A1.42,1.42,0,0,1,49.86,80,31.6,31.6,0,0,1,48,76.62c-.86-2-1.12-4.6-.12-5.53s1.8.93,1.8.93a20.51,20.51,0,0,1,.86,2.38l1.94,6.15Z"/><path class="cls-32" d="M49.71,71.69s-.79-1.87-1.79-.94-.63,3.53.24,5.49a36.91,36.91,0,0,0,2.24,4.12s.84,1.51,2.77,0,4-3.5,4-3.5a1.85,1.85,0,0,1,1.4-.52c.34,0,.58-.24.38-.36,0,0,.41-.13.08-.33,0,0,.4-.1.11-.31,0,0,.32,0,.35-.17S59.36,75,59,75a5.69,5.69,0,0,0-.77.05s.57-.49.5-.66-.17-.15-.25-.07a6.69,6.69,0,0,1-3,1.9A21,21,0,0,0,51.7,78s-.54-2.11-1.12-4A17.8,17.8,0,0,0,49.71,71.69Z"/><path class="cls-46" d="M50.89,74.81a19.78,19.78,0,0,0-1.17-3.16s-.83-1.85-1.88-.88-.66,3.55.25,5.48Z"/><path class="cls-40" d="M51.53,68.89,52.44,71V69.24A1.35,1.35,0,0,1,51.53,68.89Z"/><path class="cls-46" d="M50.83,74.88a22.2,22.2,0,0,0-1.12-3.19s-.79-1.87-1.79-.94-.63,3.53.24,5.49Z"/><path class="cls-53" d="M53.45,67.08a.37.37,0,0,0-.49.11"/><path class="cls-15" d="M53.13,67.9c.29.31.31.29.56.36l.08-.28A2.08,2.08,0,0,1,53.13,67.9Z"/><path class="cls-35" d="M50.92,68.15s.62,1.48-.43,2l-1,.07L49,69.3Z"/><circle class="cls-15" cx="59.38" cy="69.19" r="1.18"/><text class="cls-54" transform="translate(58.98 69.63)">$</text><circle class="cls-15" cx="61.62" cy="64.81" r="0.91"/><text class="cls-55" transform="translate(61.29 65.15)">$</text><circle class="cls-15" cx="58.06" cy="60.86" r="0.52"/><text class="cls-56" transform="translate(57.88 61.05)">$</text><circle class="cls-57" cx="95.12" cy="59.28" r="3.02"/><polyline class="cls-58" points="93.65 59.4 94.64 60.57 96.59 58"/><ellipse class="cls-59" cx="90.31" cy="80.55" rx="4.84" ry="5.6" transform="translate(-12.41 16.57) rotate(-9.81)"/><ellipse class="cls-60" cx="92.89" cy="80.11" rx="4.84" ry="5.6" transform="translate(-12.29 17) rotate(-9.81)"/><polygon class="cls-61" points="95.15 79.93 96.17 82.05 94.11 81.69 92.7 83.47 92.34 81.08 90.44 80.05 92.28 78.93 92.53 76.53 94.02 78.22 96.07 77.76 95.15 79.93"/><polygon class="cls-62" points="99.09 91.89 89.21 91.89 88.83 88.95 99.47 88.95 99.09 91.89"/><polygon class="cls-62" points="99.47 88.95 88.83 88.95 88.5 86.35 99.8 86.35 99.47 88.95"/><polygon class="cls-62" points="99.8 86.35 86.44 86.35 84.73 78.81 100.68 77.59 99.8 86.35"/><polyline class="cls-62" points="87.42 78.61 89.18 86.35 91.78 86.35 90.77 78.35 94.22 78.09 94.22 86.35 97.24 86.35 97.66 77.82"/><polyline class="cls-62" points="85.07 80.34 100.48 79.58 100.21 82.24 85.57 82.54 86.02 84.5 99.99 84.5"/><path class="cls-62" d="M87.13,95.08s-.24-1.84,2.08-3.19h9.88a4.12,4.12,0,0,1,1.39,3.19"/><path class="cls-62" d="M100.68,77.59l.4-2.43s0-.62,2-.65"/><circle class="cls-18" cx="87.12" cy="96.55" r="1.71"/><circle class="cls-63" cx="87.12" cy="96.55" r="0.64"/><circle class="cls-18" cx="100.48" cy="96.55" r="1.71"/><circle class="cls-63" cx="100.48" cy="96.55" r="0.64"/><path class="cls-64" d="M99.26,67.84h0l.15-.7.07-.28s.12-.28-.12-.36-.31.13-.36.52a.17.17,0,0,1,0,.07c0,.42-.06.4-.07.43"/><path class="cls-65" d="M105.23,75.86a55.56,55.56,0,0,0-.12,8.36,14.05,14.05,0,0,0,.42,3.16,12,12,0,0,0,3.06,4.67c.22.23.48.44.69.69L112,95.38l2.48-2.8-2.69-2.87a19.42,19.42,0,0,1-2-2.09,6.4,6.4,0,0,1-1-2.87c-.12-.88-.28-1.75-.32-2.64a43.57,43.57,0,0,1,.34-6.25Z"/><path class="cls-66" d="M113.73,93.17,108.85,88a19.3,19.3,0,0,1-1-6.33c.16-3,.36-5,.36-5"/><path class="cls-67" d="M113.05,75.86S109.21,92,107.91,96.2l-3.56-1.52,3.79-18.82Z"/><line class="cls-66" x1="111.65" y1="78.33" x2="107.22" y2="95.65"/><path class="cls-68" d="M106.27,95.52l-1.06,1.78A1.38,1.38,0,0,1,104,97c-.6-.48-2.62-1.79-2.62-1.79s-.12-.22.44-.13a5.67,5.67,0,0,1,2.36.91l.6-1.22Z"/><path class="cls-69" d="M114.31,92.85l2.07,2.45a14.83,14.83,0,0,1-1.66,2,4,4,0,0,1-1.7.13c-.14,0-.16-.1,0-.16a3.09,3.09,0,0,1,.43-.14,2.37,2.37,0,0,0,.91-.87c.1-.15.26-.32.23-.52a1,1,0,0,0-.33-.51c-.52-.53-1.09-1-1.09-1Z"/><path class="cls-38" d="M109.61,64.5a4,4,0,0,1,4.2,4.69s.16,5.9-.72,9.14H104.5s.89-10.92,2.48-13A2.23,2.23,0,0,0,109.61,64.5Z"/><path class="cls-70" d="M107,65.34V63.69l1.11-1.79,1.52,2.6A2.31,2.31,0,0,1,107,65.34Z"/><path class="cls-39" d="M109.61,64.5l-1.52-2.6L107,65.34A2.25,2.25,0,0,0,109.61,64.5Z"/><path class="cls-39" d="M107.81,62.55c-.12.23-.26.45-.4.67a2.71,2.71,0,0,1-1,1,.49.49,0,0,1-.48,0,.52.52,0,0,1-.2-.33,3.55,3.55,0,0,1,0-1.3.17.17,0,0,1-.18,0,.31.31,0,0,1-.11-.16,1.46,1.46,0,0,1-.12-.54,5.63,5.63,0,0,1,0-.82.55.55,0,0,1,.11-.36,1.37,1.37,0,0,1,.4-.24,1.93,1.93,0,0,1,.94-.18c1.13,0,.79.69.46,1a.68.68,0,0,1,.55-.3.45.45,0,0,1,.35.36,1.07,1.07,0,0,1-.05.53A6.31,6.31,0,0,1,107.81,62.55Z"/><path class="cls-13" d="M108.09,61.05s.24-3.1-2.62-1.48c0,0-.07.11-1.1.17,0,0-.33,1.5,2,.73a.93.93,0,0,1,.91.83l.44-.34Z"/><path class="cls-39" d="M107.89,62.29a1.16,1.16,0,0,0,.26-1.12c-.2-.66-1.37,0-.62.82Z"/><path class="cls-39" d="M99.59,67.21s-.17-.1-.41-.21h0L99,66.93h0a2.15,2.15,0,0,0-.91-.18s0,.08,0,.11c0,.21.08.48.08.53h0l.25.29h0l.33.32h0l.45.39s-.06-.06,0-.23a.47.47,0,0,0,0,.17.57.57,0,0,0,.09.15s1.56,3.19,1.79,3.63a1.88,1.88,0,0,0,.85.8,2.22,2.22,0,0,0,1.3,0,3.31,3.31,0,0,0,1.93-1.42,6,6,0,0,0,.52-2.14,9.9,9.9,0,0,1,1.31-4,64.44,64.44,0,0,0-4.37,5,.12.12,0,0,1-.19,0c-.83-.89-2-2.39-2.87-3.14"/><path class="cls-71" d="M99.25,68.36c.79-.32.41-.91.06-.57l0,0a1.89,1.89,0,0,0-.05.23.91.91,0,0,0,0,.17.5.5,0,0,0,0,.12Z"/><path class="cls-38" d="M107,65.35l-2.48,2.71a6.2,6.2,0,0,1,1.15,1.87s1.08-3.65,1.42-4.53C107.08,65.37,107,65.37,107,65.35Z"/><path class="cls-72" d="M105.62,69.81s.69-3.11.84-3.3C106.46,66.51,105.37,68.85,105.62,69.81Z"/><g class="cls-73"><g class="cls-74"><ellipse class="cls-75" cx="105.38" cy="72.65" rx="1.19" ry="0.62" transform="translate(11.67 159.84) rotate(-77.52)"/><ellipse class="cls-76" cx="109.61" cy="75.09" rx="0.99" ry="0.51" transform="translate(6.47 158.84) rotate(-73.49)"/><ellipse class="cls-77" cx="109.85" cy="71.54" rx="0.31" ry="0.15" transform="translate(16.25 163.32) rotate(-77.52)"/><ellipse class="cls-78" cx="106.46" cy="74.29" rx="0.31" ry="0.15" transform="translate(25.63 175.87) rotate(-86.39)"/><ellipse class="cls-78" cx="106.31" cy="69.53" rx="0.31" ry="0.15" transform="translate(6.64 148.28) rotate(-71.5)"/><ellipse class="cls-75" cx="107.28" cy="66.02" rx="0.63" ry="0.3" transform="translate(6.92 142.15) rotate(-68.79)"/><ellipse class="cls-75" cx="113.14" cy="76.14" rx="1.38" ry="0.64" transform="translate(16.15 172.01) rotate(-78.61)"/><ellipse class="cls-75" cx="111.5" cy="65.19" rx="0.97" ry="0.36" transform="translate(-16.76 80.35) rotate(-37.05)"/><ellipse class="cls-79" cx="105.38" cy="72.65" rx="0.78" ry="0.4" transform="translate(11.67 159.84) rotate(-77.52)"/><ellipse class="cls-80" cx="109.61" cy="75.09" rx="0.67" ry="0.35" transform="translate(6.47 158.84) rotate(-73.49)"/><ellipse class="cls-81" cx="111.5" cy="65.19" rx="0.53" ry="0.2" transform="translate(-16.76 80.35) rotate(-37.05)"/><ellipse class="cls-82" cx="107.28" cy="66.02" rx="0.33" ry="0.16" transform="translate(6.92 142.15) rotate(-68.79)"/><ellipse class="cls-83" cx="113.14" cy="76.14" rx="0.97" ry="0.45" transform="translate(16.15 172.01) rotate(-78.61)"/></g></g><path class="cls-72" d="M111.68,67.06c-.34,1.5-.21,2.81-1.12,4.18a13.84,13.84,0,0,1-3.93,3.34c.12.4.3.77.45,1.15,6.06-.75,7.09-3.65,6.2-9.36"/><path class="cls-39" d="M111.49,66.88c-.36,1.46-.2,2.76-1.06,4.12a13.87,13.87,0,0,1-3.79,3.34c.13.39.3.76.46,1.13,5.64-1.12,6.87-3.54,6.18-9.1"/><path class="cls-84" d="M113.86,70.37c-.9-.42-1.82-.81-2.72-1.23.11-.8.22-1.6.35-2.39.59-.14,1.19-.26,1.79-.38A12.31,12.31,0,0,1,113.86,70.37Z"/><path class="cls-72" d="M111.14,69.14c.1-.76.22-1.52.33-2.28,0,.17.14-.41.09.19s-.2,1.47-.32,2.11C111.23,69.21,111.14,69.16,111.14,69.14Z"/><path class="cls-39" d="M106.27,74.38l-.3.1-.49.1-.4.08-.2,0a.38.38,0,0,1-.17,0,9.48,9.48,0,0,0-2.09-.69c-.64-.08-.36.24-.06.33s.84.27.25.43l-.52.06c-.56.11-.52.12-.42.21.55.51,1.44,1.31,1.68,1.24a9.6,9.6,0,0,0,1.85-.49,16.41,16.41,0,0,0,4.94-1.35c-.59-.62-.85-1.14-1.41-1.79-.47.36-.81.62-1.33,1A6.21,6.21,0,0,1,106.27,74.38Z"/><path class="cls-30" d="M100,68.13l.28-.4s0-.14-.06-.19l-2.93-2.07c-.07,0-.17-.07-.2,0l-.44.3c-.05.06,0,.15.07.21l3.09,2.17A.13.13,0,0,0,100,68.13Z"/><path class="cls-85" d="M100,68.1l.29-.41s0-.13,0-.18l-3-2.09a.15.15,0,0,0-.18,0l-.45.32a.13.13,0,0,0,.06.17l3.11,2.19C99.91,68.15,100,68.15,100,68.1Z"/><polygon class="cls-15" points="99.84 68.07 100.23 67.54 97.33 65.5 96.77 65.91 99.84 68.07"/><path d="M96.91,65.75l.24-.18a0,0,0,0,0,0,0h0a0,0,0,0,0,0,0l-.25.17a0,0,0,0,0,0,0h0Z"/><circle cx="96.83" cy="65.77" r="0.02" transform="translate(26.59 159.41) rotate(-87.31)"/><polygon class="cls-31" points="97.19 66.11 97.54 65.8 97.48 65.75 97.12 66.06 97.19 66.11"/><polygon class="cls-31" points="97.31 66.2 97.67 65.89 97.61 65.84 97.25 66.15 97.31 66.2"/><polygon class="cls-31" points="97.44 66.29 97.8 65.98 97.74 65.93 97.38 66.24 97.44 66.29"/><polygon class="cls-31" points="97.57 66.38 97.93 66.07 97.87 66.02 97.51 66.33 97.57 66.38"/><polygon class="cls-31" points="97.7 66.47 98.06 66.16 98 66.11 97.64 66.42 97.7 66.47"/><polygon class="cls-31" points="98.15 66.77 98.5 66.46 98.13 66.2 97.77 66.51 98.15 66.77"/><polygon class="cls-31" points="98.34 66.9 98.7 66.58 98.63 66.54 98.27 66.85 98.34 66.9"/><polygon class="cls-31" points="98.47 66.98 98.83 66.67 98.76 66.63 98.4 66.94 98.47 66.98"/><polygon class="cls-31" points="98.6 67.07 98.96 66.76 98.89 66.72 98.53 67.03 98.6 67.07"/><polygon class="cls-31" points="98.73 67.16 99.09 66.85 99.02 66.81 98.66 67.12 98.73 67.16"/><polygon class="cls-31" points="98.86 67.25 99.22 66.94 99.15 66.89 98.79 67.21 98.86 67.25"/><polygon class="cls-31" points="99.3 67.55 99.66 67.24 99.28 66.98 98.92 67.3 99.3 67.55"/><path class="cls-39" d="M97.28,66.33l.93,1.06h0s0-.32-.08-.53c0,0,0-.07,0-.11h-.05s-.23-.37-.3-.46-.33-.36-.54-.29S97.28,66.33,97.28,66.33Z"/><path class="cls-39" d="M98.46,67.68l.33.33h0L99,66.93l.06-.29s.13-.27-.11-.35-.32.13-.36.52a.15.15,0,0,0,0,.07A4.33,4.33,0,0,1,98.46,67.68Z"/><path class="cls-39" d="M98.12,66.75s0,.08,0,.11c0,.22.08.53.08.53l.25.29.07-.89,0-.31s0-.3-.21-.3S98.1,66.51,98.12,66.75Z"/><path class="cls-39" d="M99.28,68.42c-.17-.29.1-.85.29-1.21a2,2,0,0,0,.13-.28c.08-.29-.21-.6-.52.07a1.12,1.12,0,0,1-.05.13c-.27.71-.33.85-.34.87h0C99,68.22,99.26,68.4,99.28,68.42Z"/><path class="cls-31" d="M105.77,96.88a5.25,5.25,0,0,1-1.64-.94s-1.84-1.26-3.28-.74S105,98.09,105,98.09Z"/><path class="cls-31" d="M115.91,94.53a3.43,3.43,0,0,1-1.11,1.13s-2.25.67-2.11,2.24c0,.4.47.46,1,.33a3.81,3.81,0,0,0,1.13-.52,9.82,9.82,0,0,0,2.1-2.08Z"/><ellipse cx="106.1" cy="61.48" rx="0.05" ry="0.18" transform="translate(-9.81 21.46) rotate(-11.04)"/><path class="cls-86" d="M105.77,63.09s.13.55.61-.05"/><path class="cls-39" d="M102.62,74.83s-1,0-1,.31.52.33.52.33-.17,0-.17.14a.3.3,0,0,0,.4.22s-.06,0-.05.12.27.25.37.1a.21.21,0,0,0,0,.2c0,.13.49.13,1.14,0a3.86,3.86,0,0,0,1.6-.48Z"/><line class="cls-87" x1="102.71" y1="6.69" x2="102.71" y2="9.35"/><line class="cls-87" x1="104.04" y1="8.02" x2="101.38" y2="8.02"/><line class="cls-88" x1="80.27" y1="2.65" x2="80.27" y2="3.71"/><line class="cls-88" x1="80.8" y1="3.18" x2="79.74" y2="3.18"/><line class="cls-89" x1="145.21" y1="63.59" x2="145.21" y2="65.84"/><line class="cls-89" x1="146.33" y1="64.72" x2="144.08" y2="64.72"/><line class="cls-90" x1="0.99" y1="29.7" x2="0.99" y2="31.67"/><line class="cls-90" x1="1.97" y1="30.68" y2="30.68"/><circle class="cls-15" cx="60.12" cy="1.86" r="0.67"/><circle class="cls-15" cx="0.99" cy="55.69" r="0.67"/></g></g></svg>